- 
http://www.Speed.Cd      fast  and The Hottest Private Tracker on the net

Please Seed back to make the speed Faster!!!

------------------nfo--------------------------
-[pre]
oooooo     oooo  o8o   .oooooo..o ooooo     ooo       .o.       ooooo         o8o   .oooooo..o oooooooooooo
`888.     .8'   `"'  d8P'    `Y8 `888'     `8'      .888.      `888'         `"'  d8P'    `Y8 `888'     `8
 `888.   .8'   oooo  Y88bo.       888       8      .8"888.      888         oooo  Y88bo.       888        
  `888. .8'    `888   `"Y8888o.   888       8     .8' `888.     888         `888   `"Y8888o.   888oooo8    
   `888.8'      888       `"Y88b  888       8    .88ooo8888.    888          888       `"Y88b  888    "    
    `888'       888  oo     .d8P  `88.    .8'   .8'     `888.   888       o  888  oo     .d8P  888       o
     `8'       o888o 8""88888P'     `YbodP'    o88o     o8888o o888ooooood8 o888o 8""88888P'  o888ooooood8






Title: Whats Your Number 2011 R5CAM (New Audio) XviD - VISUALiSE
Format: Xvid
Language: English
Subtitles: No
Imdb: http://www.imdb.com/title/tt0770703/

Plot:
A woman looks back at the past twenty men she's had relationships 
with in her life and wonders if one of them might be her one true 
love.

Sources:
Video - Russian DVD9 - Many Thanks guys :P ;) 
Audio - New Audio - Thanks Mate ;) :P


Release Notes: 
Ok Here we are bringing you all another release and this time its,
Whats Your Number 2011 R5CAM (New Audio) XviD - VISUALiSE
Video we used the russian dvd 9 in which we ripped and encoded 
to get it looking nice after that we synced our own cam audio
to the encode which we must say is alot better than the cam audio
thats out there at min although first 31 seconds and last 3:55 are 
source audio.

Either way hope you enjoy this release as it much more nicer on the
ears with this audio :P :P :P

Info:

Video

Format                           : AVI
Format/Info                      : Audio Video Interleave
File size                        : 1.05 GiB
Duration                         : 1h 41mn
Overall bit rate                 : 1 470 Kbps
Writing library                  : VirtualDub build 30586/release

ID                               : 0
Format                           : MPEG-4 Visual
Format profile                   : Advanced Simple@L5
Format settings, BVOP            : 2
Format settings, QPel            : No
Format settings, GMC             : No warppoints
Format settings, Matrix          : Default (H.263)
Muxing mode                      : Packed bitstream
Codec ID                         : XVID
Codec ID/Hint                    : XviD
Duration                         : 1h 41mn
Bit rate                         : 1 333 Kbps
Width                            : 720 pixels
Height                           : 356 pixels
Display aspect ratio             : 2.022
Frame rate                       : 25.000 fps
Color space                      : YUV
Chroma subsampling               : 4:2:0
Bit depth                        : 8 bits
Scan type                        : Progressive
Compression mode                 : Lossy
Bits/(Pixel*Frame)               : 0.208
Stream size                      : 971 MiB (91%)
Writing library                  : XviD 64

Audio

ID                               : 1
Format                           : MPEG Audio
Format version                   : Version 1
Format profile                   : Layer 3
Mode                             : Joint stereo
Mode extension                   : MS Stereo
Codec ID                         : 55
Codec ID/Hint                    : MP3
Duration                         : 1h 41mn
Bit rate mode                    : Constant
Bit rate                         : 128 Kbps
Channel(s)                       : 2 channels
Sampling rate                    : 44.1 KHz
Compression mode                 : Lossy
Stream size                      : 93.3 MiB (9%)
Alignment                        : Split accross interleaves
Interleave, duration             : 40 ms (1.00 video frame)
Writing library                  : LAME3.98r
Encoding settings                : -m j -V 4 -q 2 -lowpass 17 -b 128

Screens:
[IMG]http://i.imgur.com/tAyKl.png[/IMG]

[IMG]http://i.imgur.com/uSaVm.png[/IMG]

[IMG]http://i.imgur.com/SQNvA.png[/IMG]

[IMG]http://i.imgur.com/u2LPz.png[/IMG]

Greetz:
Each and Every Scene / P2P Group Past and Present and All Who Have Made It What It Is 2Day  [/pre]